<?xml version="1.0" encoding="UTF-8"?>
<svg width="752px" height="136px" viewBox="0 0 752 136" version="1.1" xmlns="http://www.w3.org/2000/svg" xmlns:xlink="http://www.w3.org/1999/xlink">
    <!-- Generator: Sketch 50.2 (55047) - http://www.bohemiancoding.com/sketch -->
    <title>nrgplayer_logo</title>
    <desc>Created with Sketch.</desc>
    <defs>
        <path d="M60.8948276,122 C94.5261122,122 121.789655,94.6893697 121.789655,61 C121.789655,27.3106303 94.5261122,0 60.8948276,0 C27.263543,0 0,27.3106303 0,61 C0,94.6893697 27.263543,122 60.8948276,122 Z" id="path-1"></path>
        <filter x="-1.2%" y="-1.2%" width="102.5%" height="102.5%" filterUnits="objectBoundingBox" id="filter-2">
            <feOffset dx="0" dy="-1" in="SourceAlpha" result="shadowOffsetInner1"></feOffset>
            <feComposite in="shadowOffsetInner1" in2="SourceAlpha" operator="arithmetic" k2="-1" k3="1" result="shadowInnerInner1"></feComposite>
            <feColorMatrix values="0 0 0 0 0.0395142432   0 0 0 0 0.0395142432   0 0 0 0 0.0395142432  0 0 0 0.2 0" type="matrix" in="shadowInnerInner1" result="shadowMatrixInner1"></feColorMatrix>
            <feOffset dx="0" dy="3" in="SourceAlpha" result="shadowOffsetInner2"></feOffset>
            <feComposite in="shadowOffsetInner2" in2="SourceAlpha" operator="arithmetic" k2="-1" k3="1" result="shadowInnerInner2"></feComposite>
            <feColorMatrix values="0 0 0 0 1   0 0 0 0 1   0 0 0 0 1  0 0 0 0.2 0" type="matrix" in="shadowInnerInner2" result="shadowMatrixInner2"></feColorMatrix>
            <feMerge>
                <feMergeNode in="shadowMatrixInner1"></feMergeNode>
                <feMergeNode in="shadowMatrixInner2"></feMergeNode>
            </feMerge>
        </filter>
        <linearGradient x1="16.1090353%" y1="11.7951766%" x2="58.0808424%" y2="66.3451087%" id="linearGradient-3">
            <stop stop-color="#FFFFFF" stop-opacity="0.147022192" offset="0%"></stop>
            <stop stop-color="#FFFFFF" stop-opacity="0" offset="100%"></stop>
        </linearGradient>
        <polygon id="path-4" points="0 46.6067416 46.5263851 46.6067416 46.5263851 0 93.0527702 0 93.0527702 46.6067416 93.0527702 93.2134831 0 93.2134831"></polygon>
    </defs>
    <g id="Mobile" stroke="none" stroke-width="1" fill="none" fill-rule="evenodd">
        <g id="Artboard" transform="translate(-164.000000, -98.000000)">
            <g id="nrglogo-copy" transform="translate(173.000000, 105.000000)">
                <g id="logo" transform="translate(170.000000, 23.000000)" fill="#FFFFFF">
                    <path d="M564,18.4900927 C564,21.1011086 562.701077,22.4056349 560.087791,22.4056349 L555.309955,22.4056349 C547.500976,22.4056349 543.604207,24.4129761 543.604207,28.4276584 L543.604207,57.7368023 C543.604207,60.3802105 542.322655,61.7024053 539.75762,61.7024053 L536.887637,61.7024053 C534.321637,61.7024053 533.039119,60.3645051 533.039119,57.687723 L533.182908,28.4276584 C533.214754,23.0102912 535.829005,19.0122959 541.023732,16.4336723 C544.999633,14.4577419 549.971439,13.4624148 555.918885,13.4624148 L560.103231,13.4624148 C562.701077,13.4624148 564,14.7846097 564,17.4289994 L564,18.4900927 L564,18.4900927 Z M434.187801,47.31826 C434.188766,37.35321 434.193591,27.3969942 434.193591,17.4289994 C434.193591,14.7846097 435.493479,13.4624148 438.089395,13.4624148 L440.815589,13.4624148 C443.370974,13.4624148 444.731659,14.8179835 444.731659,17.4289994 C444.731659,31.6639438 444.752889,45.8998698 444.752889,60.1357958 C444.752889,65.6846953 441.306787,69.7474753 434.411687,72.3260989 C429.60104,74.1381046 423.925731,75.0519602 417.415676,75.0519602 L413.038325,75.0519602 C410.441444,75.0519602 409.142521,73.7454706 409.142521,71.1354364 L409.142521,70.0743431 C409.142521,67.4623456 410.441444,66.1578193 413.038325,66.1578193 L420.606047,66.1578193 C422.451173,66.1578193 425.031649,65.6513214 428.350368,64.623602 C432.118789,63.4820188 433.995761,62.3718462 433.995761,61.3264583 L434.042083,59.1699163 C429.856771,60.6040118 424.692925,61.3264583 418.56502,61.3264583 L405.390506,61.3264583 C398.688411,61.3264583 393.140485,60.4626636 388.763134,58.7488163 C382.397832,56.2526459 379.223867,52.1398051 379.223867,46.4112756 L379.223867,17.4289994 C379.223867,14.7846097 380.506384,13.4624148 383.072384,13.4624148 L385.798578,13.4624148 C388.362649,13.4624148 389.645166,14.7846097 389.645166,17.4289994 L389.645166,46.2650194 C389.645166,50.4102525 394.808047,52.4823782 405.150214,52.4823782 L418.805311,52.4823782 C428.230705,52.4823782 433.35209,50.7606783 434.187801,47.31826 L434.187801,47.31826 Z M252.892511,46.5094341 L252.892511,27.8082783 C252.892511,25.262047 250.952812,23.5982606 247.073414,22.8306612 C245.437697,22.5204804 242.567714,22.3575373 238.4625,22.3575373 L222.203768,22.3575373 C212.968483,22.3575373 208.350841,24.250033 208.350841,28.0517113 L208.350841,71.1354364 C208.350841,73.7454706 207.069289,75.0519602 204.503288,75.0519602 L201.778059,75.0519602 C199.212059,75.0519602 197.928577,73.7454706 197.928577,71.1354364 L197.928577,27.8082783 C197.928577,21.9491979 200.63933,17.9021233 206.058908,15.6660729 C209.633359,14.1976219 214.860896,13.4624148 221.738626,13.4624148 L238.383368,13.4624148 C255.105312,13.4624148 263.459529,18.1956172 263.459529,27.6610405 L263.459529,46.3621963 C263.459529,56.3331359 255.939094,61.3235136 240.915592,61.3264583 L219.387826,61.3323478 C217.222311,61.3323478 216.139554,60.2427886 216.139554,58.0656332 L216.139554,55.7520376 C216.139554,53.4826133 217.390225,52.485323 219.53644,52.485323 L240.915592,52.4823782 C248.90117,52.4813967 252.892511,50.4907425 252.892511,46.5094341 L252.892511,46.5094341 Z M287.1393,57.7368023 C287.1393,60.3802105 285.855818,61.7024053 283.290783,61.7024053 L280.564588,61.7024053 C277.999553,61.7024053 276.717036,60.3802105 276.717036,57.7368023 L276.717036,4.34054618 C276.717036,1.72953031 277.999553,0.424022374 280.564588,0.424022374 L283.290783,0.424022374 C285.855818,0.424022374 287.1393,1.72953031 287.1393,4.34054618 L287.1393,57.7368023 L287.1393,57.7368023 Z M359.368488,47.7501574 L359.368488,27.3341728 C358.839654,24.0546976 354.750846,22.4056349 347.103027,22.4056349 L339.230357,22.4056349 C336.680762,22.4056349 335.39728,21.1011086 335.39728,18.4900927 L335.39728,17.4289994 C335.39728,14.7846097 336.680762,13.4624148 339.245797,13.4624148 L344.985763,13.4624148 C361.516632,13.4624148 369.790752,18.4076396 369.790752,28.2804206 L369.790752,47.2112673 C369.790752,56.8710444 362.671767,61.7024053 348.41739,61.7024053 L322.906968,61.7024053 C320.438435,61.7024053 317.745052,61.3608138 314.826818,60.657999 C305.366683,58.3895563 300.637098,54.0813801 300.637098,47.7501574 L300.637098,41.5808962 C300.637098,36.5708868 303.203098,32.8016007 308.333168,30.2553695 C312.245377,28.3137945 316.958557,27.3341728 322.491042,27.3341728 C326.962001,27.3341728 331.65395,27.3331912 336.123943,27.3361359 C338.292353,27.3361359 339.556535,28.3452052 339.556535,30.637206 L339.556535,32.9753413 C339.556535,35.1740915 338.462197,36.2764113 336.272557,36.2764113 C331.690621,36.2744482 326.883834,36.2773929 322.299002,36.2773929 C320.310087,36.2773929 318.178348,36.636653 315.852639,37.3708785 C312.662268,38.3985979 311.058397,39.7855774 311.058397,41.531817 L311.058397,47.6510173 C311.058397,49.6583585 312.917999,51.0787118 316.654574,51.8944089 C317.937092,52.1879028 319.925042,52.4823782 322.61939,52.8082644 L348.512927,52.8082644 C355.744821,52.8082644 359.368488,51.1277911 359.368488,47.7501574 L359.368488,47.7501574 Z M510.241381,33.6015924 L510.241381,27.6610405 C510.241381,25.8490348 508.237025,24.4453684 504.228313,23.4500413 C501.406582,22.7482081 498.713198,22.4056349 496.147198,22.4056349 L481.02816,22.4056349 C470.525798,22.4056349 465.28282,24.2824253 465.28282,28.0517113 L465.28282,33.6015924 L465.618649,42.8206379 C465.618649,49.4787284 470.124348,52.8082644 479.151187,52.8082644 L486.94376,52.8082644 C489.50976,52.8082644 490.792277,54.1304593 490.792277,56.7738675 L490.792277,57.7368023 C490.792277,60.3802105 489.50976,61.7024053 486.94376,61.7024053 L480.274476,61.7024053 C473.604226,61.7024053 468.152803,60.8042551 463.919241,59.0256233 C457.875292,56.4803736 454.860556,52.2860613 454.860556,46.4436679 L454.860556,28.7054469 C454.860556,23.140842 457.858887,19.0122959 463.840109,16.3355138 C468.184649,14.3929573 473.524129,13.4143171 479.857585,13.4143171 L499.338534,13.4143171 C504.613358,13.4143171 509.135463,14.3281727 512.918359,16.1391968 C517.905605,18.5381904 520.390543,22.0797487 520.390543,26.7962642 L520.390543,38.4143033 C520.390543,41.3521869 519.412009,42.8206379 517.472309,42.8206379 C503.832653,42.8206379 500.899944,42.8186748 487.263183,42.8235827 C485.004061,42.8235827 483.874017,41.687889 483.874017,39.4165015 L483.874017,37.0037658 C483.874017,34.6371645 485.179695,33.5966845 487.418552,33.5966845 C498.585815,33.5888318 499.064467,33.6015924 510.241381,33.6015924 L510.241381,33.6015924 Z" id="Fill-1" opacity="0.7"></path>
                    <path d="M174.044969,52.2071961 L174.044969,28.7472901 C174.044969,26.3299587 172.088067,24.4992724 168.176194,23.2915894 C165.484007,22.4573153 162.597866,22.0495134 159.535141,22.0495134 L143.037534,22.0495134 C139.222154,22.0495134 136.448912,22.2617669 134.716842,22.6695687 C131.238227,23.5028602 129.507122,25.2677086 129.507122,27.9788538 L129.507122,45.9830592 C129.507122,50.1318287 134.668595,52.1993349 145.009875,52.2071961 L149.748703,52.2101441 C151.893768,52.2101441 153.145298,53.2085216 153.145298,55.48042 L153.145298,57.7965379 C153.145298,59.9760668 152.062633,61.0668138 149.896339,61.0668138 C145.069701,61.0668138 150.077748,61.0609179 145.250145,61.0609179 C138.548625,61.0609179 133.001176,60.1971641 128.625165,58.4804658 C122.259445,55.9825567 119.085752,51.8642495 119.085752,46.1294748 L119.085752,28.2245176 C119.085752,23.1432085 121.650567,19.2558252 126.781162,16.5436973 C131.078047,14.2727816 136.304171,13.1446936 142.476903,13.1446936 L157.835879,13.1446936 C164.409062,13.1446936 170.036601,14.0762506 174.702094,15.9226593 C181.30712,18.5365217 184.610115,22.6695687 184.610115,28.3227831 L184.610115,59.8689574 C184.610115,65.4239062 181.162379,69.4911154 174.268836,72.0725501 C169.458601,73.8865313 163.783779,74.8013831 157.275248,74.8013831 L152.897308,74.8013831 C150.30065,74.8013831 149.001838,73.4934693 149.001838,70.8805896 L149.001838,69.8183395 C149.001838,67.2034945 150.30065,65.8975459 152.897308,65.8975459 L160.465345,65.8975459 C162.309349,65.8975459 164.889603,65.390496 168.209002,64.3616561 C171.976134,63.2188283 173.852946,62.1074455 173.852946,61.0609179 L174.044969,52.2071961 L174.044969,52.2071961 Z M64.7730454,57.4673485 C64.7730454,60.1136385 63.4742339,61.4372748 60.876611,61.4372748 L58.1516157,61.4372748 C55.5549577,61.4372748 54.2561462,60.1136385 54.2561462,57.4673485 L54.2561462,26.7377605 C54.2561462,24.8589241 53.1175151,23.5844206 50.8248137,22.9152325 C48.9808101,22.3757549 45.7260619,22.0976635 41.0615339,22.0976635 L24.0505774,22.0976635 C19.193061,22.0976635 15.8582226,22.3590498 14.0470271,22.8660997 C11.6896747,23.5362705 10.5192004,24.842219 10.5192004,26.7868933 L10.5192004,57.4673485 C10.5192004,60.1136385 9.23679296,61.4372748 6.67197802,61.4372748 L3.94698277,61.4372748 C1.38120289,61.4372748 0.0978304769,60.1136385 0.0978304769,57.4673485 L0.0978304769,26.8851588 C0.0978304769,17.7199354 8.06631872,13.1446936 24.0023303,13.1446936 L41.0615339,13.1446936 C56.8692082,13.1446936 64.7730454,17.6875078 64.7730454,26.7868933 L64.7730454,57.4673485 L64.7730454,57.4673485 Z M108.93939,18.1778526 C108.93939,20.791715 107.640579,22.0976635 105.027517,22.0976635 L100.250091,22.0976635 C92.4417826,22.0976635 88.5463131,24.107193 88.5463131,28.1262521 L88.5463131,57.4673485 C88.5463131,60.1136385 87.2639057,61.4372748 84.6990907,61.4372748 L81.8283893,61.4372748 C79.2635743,61.4372748 77.9811669,60.097916 77.9811669,57.4182157 L78.1249432,28.1262521 C78.1577512,22.702979 80.7708132,18.7006251 85.9650942,16.1191903 C89.9416188,14.1411058 94.9110683,13.1446936 100.858969,13.1446936 L105.043921,13.1446936 C107.640579,13.1446936 108.93939,14.4683299 108.93939,17.1156025 L108.93939,18.1778526 L108.93939,18.1778526 Z" id="Fill-2"></path>
                </g>
                <g id="icon">
                    <g id="Oval-20">
                        <use fill="#FFFFFF" fill-rule="evenodd" xlink:href="#path-1"></use>
                        <use fill="black" fill-opacity="1" filter="url(#filter-2)" xlink:href="#path-1"></use>
                    </g>
                    <ellipse id="Oval-23" fill="url(#linearGradient-3)" cx="60.8948276" cy="61" rx="45.8421736" ry="45.9213483"></ellipse>
                    <ellipse id="Oval-22" stroke-opacity="0.3" stroke="#000000" stroke-width="1.3689" cx="60.5527218" cy="61.3426966" rx="45.4998293" ry="45.5795949"></ellipse>
                    <g id="mask" transform="translate(13.684231, 14.393258)">
                        <mask id="mask-5" fill="white">
                            <use xlink:href="#path-4"></use>
                        </mask>
                        <g id="Rectangle-155"></g>
                        <ellipse id="Oval-21" stroke="#607D8B" stroke-width="2.7378" mask="url(#mask-5)" cx="46.5263851" cy="46.6067416" rx="45.1574851" ry="45.2378416"></ellipse>
                    </g>
                    <ellipse id="normal" fill="#607D8B" cx="16.0789713" cy="61.3426966" rx="5.13158659" ry="5.14044944"></ellipse>
                    <path d="M65.9643863,44.6475718 C66.6483483,43.422791 67.7503913,43.4203781 68.4288477,44.6475718 L86.0595828,76.538091 C86.7367052,77.7628718 86.1424978,78.7557528 84.7450996,78.7557528 L49.457662,78.7557528 C48.0545705,78.7557528 47.4702535,77.7652847 48.155563,76.538091 L65.9643863,44.6475718 Z" id="Play" fill="#607D8B" transform="translate(67.215929, 60.772049) rotate(-270.000000) translate(-67.215929, -60.772049) "></path>
                </g>
            </g>
        </g>
    </g>
</svg>